<?xml version="1.0" encoding="utf-8"?>
<!-- Generator: Adobe Illustrator 23.0.1, SVG Export Plug-In . SVG Version: 6.00 Build 0)  -->
<svg version="1.1" id="Layer_1" xmlns="http://www.w3.org/2000/svg" xmlns:xlink="http://www.w3.org/1999/xlink" x="0px" y="0px"
	 viewBox="0 0 892.2 866.8" style="enable-background:new 0 0 892.2 866.8;" xml:space="preserve">
<style type="text/css">
	.st0{fill:#0C3866;}
	.st1{fill:#FFFFFF;}
	.st2{fill:#222222;}
</style>
<g>
	<polygon class="st1" points="161.5,226.7 196.1,226.7 189.8,213.1 161.5,213.1 161.5,193.6 192,193.6 192,179.8 145.3,179.8 
		145.3,213.1 133.4,213.1 139.8,226.7 145.3,226.7 145.3,318.3 192,318.3 192,304.5 161.5,304.5 	"/>
	<path class="st1" d="M252.1,179.8v111.8c0,4.6-1.1,8.3-3.3,11c-2.1,2.5-5.9,3.8-11.2,3.8c-5.3,0-9.1-1.3-11.1-4
		c-2.1-2.8-3.2-6.5-3.2-11V179.8h-16.2v112c0,8.3,2.7,15.2,8.1,20.5c5.4,5.3,13.1,7.9,22.9,7.9c9.7,0,17.2-2.7,22.3-8
		c5.1-5.3,7.7-12,7.7-20V179.8H252.1z"/>
	<path class="st1" d="M324.5,287.1c12.7-4.4,23-10.8,30.8-19.2c8.6-9.3,13-20.3,13-32.7c0-15.5-6.9-28.8-20.5-39.5
		c-13.5-10.6-30-16-49-16h-11v138.5H304V291l40.4,27.3H371L324.5,287.1z M352.1,235.8c0,11.4-4.7,20.8-14.5,28.5
		c-8.7,7-20,11.3-33.6,12.9v-83.9c13.7,1.4,25.2,5.9,34.2,13.4C347.6,214.6,352.1,224.1,352.1,235.8z"/>
	<path class="st1" d="M525.3,199c-16.5-13.8-37-20.8-60.7-20.8c-24.8,0-46.1,6.9-63.2,20.6c-17.2,13.8-26,31-26,51.2
		c0,19.5,8.7,36.3,25.9,49.9c17,13.5,37.8,20.3,61.6,20.3c24,0,44.8-6.9,61.8-20.6c17.1-13.8,25.7-30.7,25.7-50.2
		C550.4,229.9,541.9,212.9,525.3,199z M391.3,249.2c0-15.5,6.8-29,20.2-40.2c13.5-11.3,30.1-17,49.4-17c20.9,0,38.6,5.6,52.6,16.5
		c13.8,10.9,20.8,24.8,20.8,41.4c0,15.4-7,28.8-20.9,39.7c-14,11-31.1,16.6-50.7,16.6c-20,0-37-5.6-50.8-16.7
		C398.2,278.6,391.3,265,391.3,249.2z"/>
	<path class="st1" d="M623.9,196.2c-13.1-10.9-29.3-16.4-48-16.4h-13v138.5h16.2v-25.6c18.4-1.9,33.8-7.8,45.8-17.6
		c12.6-10.3,19-23.4,19-39.1C643.9,220.6,637.2,207.2,623.9,196.2z M628,236c0,11.7-4.9,21.9-14.6,30.2c-9.3,8-20.8,12.2-34.3,12.6
		v-85.4c14.1,1.5,25.8,6.1,34.8,13.5C623.4,214.6,628,224.2,628,236z"/>
	<polygon class="st1" points="674.1,226.7 708.8,226.7 702.4,213.1 674.1,213.1 674.1,193.6 704.7,193.6 704.7,179.8 658,179.8 
		658,213.1 646.1,213.1 652.4,226.7 658,226.7 658,318.3 704.7,318.3 704.7,304.5 674.1,304.5 	"/>
	<polygon class="st1" points="160.2,490.9 160.2,366.2 144,366.2 144,504.7 191.5,504.7 191.5,490.9 	"/>
	<path class="st1" d="M249.8,372.7c-4.7-5.6-12.2-8.4-22.3-8.4c-12.6,0-21,4.2-25,12.6c-2,4.2-3.1,11.5-3.2,22.3h-11.5l5.6,13.6h5.9
		v91.8h16.2v-91.8h24.1v91.8h16.2V392.3C255.8,384,253.7,377.4,249.8,372.7z M239.6,388.9v10.3h-24.1v-10.1c0-3.4,1.1-6,3.2-7.9
		c2.2-2,5.4-3,9.6-3c3.9,0,6.8,1,8.6,2.9C238.7,383.1,239.6,385.6,239.6,388.9z"/>
	<polygon class="st1" points="323.1,366.2 323.1,385.8 275.6,362.8 275.6,504.7 291.8,504.7 291.8,386.4 323.1,401.4 323.1,504.7 
		339.3,504.7 339.3,366.2 	"/>
	<path class="st1" d="M391.7,395.6c13.2-10.5,29.6-15.8,48.9-15.8h2v-13.6h-2c-23.7,0-43.9,6.6-60.1,19.7
		c-16.3,13.2-24.6,29.8-24.6,49.3c0,19.8,8.4,36.3,25,49c15.2,11.6,35.3,18.5,59.5,20.6l2.1,0.2v-105h-16.2v89.2
		c-16-3.2-29.1-9.5-38.9-18.8c-10.2-9.7-15.4-21.4-15.4-34.9C372,419.4,378.6,406,391.7,395.6z"/>
	<path class="st1" d="M507.3,366.2v111.8c0,4.6-1.1,8.3-3.3,11c-2.1,2.5-5.9,3.8-11.2,3.8c-5.3,0-9.1-1.3-11.1-4
		c-2.1-2.8-3.2-6.5-3.2-11V366.2h-16.2v112c0,8.3,2.7,15.2,8.1,20.5c5.4,5.3,13.1,7.9,22.9,7.9c9.7,0,17.2-2.7,22.3-8
		c5.1-5.3,7.7-12,7.7-20V366.2H507.3z"/>
	<path class="st1" d="M598.5,372.7c-4.7-5.6-12.2-8.4-22.3-8.4c-12.6,0-21,4.2-25,12.6c-2,4.2-3.1,11.5-3.2,22.3h-11.5l5.6,13.6h5.8
		v91.8h16.2v-91.8h24.1v91.8h16.2V392.3C604.5,384,602.5,377.4,598.5,372.7z M588.3,388.9v10.3h-24.1v-10.1c0-3.4,1.1-6,3.2-7.9
		c2.2-2,5.4-3,9.6-3c3.9,0,6.8,1,8.6,2.9C587.4,383.1,588.3,385.6,588.3,388.9z"/>
	<path class="st1" d="M655.2,395.6c13.2-10.5,29.6-15.8,48.9-15.8h2v-13.6h-2c-23.7,0-43.9,6.6-60.1,19.7
		c-16.3,13.2-24.6,29.8-24.6,49.3c0,19.8,8.4,36.3,25,49c15.2,11.6,35.3,18.5,59.5,20.6l2.1,0.2v-105h-16.2v89.2
		c-16-3.2-29.1-9.5-38.9-18.8c-10.2-9.7-15.4-21.4-15.4-34.9C635.6,419.4,642.2,406,655.2,395.6z"/>
	<polygon class="st1" points="745.4,413.1 780,413.1 773.7,399.5 745.4,399.5 745.4,380 775.9,380 775.9,366.2 729.2,366.2 
		729.2,399.5 717.3,399.5 723.6,413.1 729.2,413.1 729.2,504.7 775.9,504.7 775.9,490.9 745.4,490.9 	"/>
	<path class="st1" d="M133,548.3v13.8h24.5v80.2c0,8.8-1.4,15.5-4.2,19.7c-3.4,5.2-9.9,9-19.6,11.3l-1.5,0.4v13.5l2.3-0.4
		c13.4-2.1,23.4-6.7,29.6-13.9c6.2-7.1,9.4-16.5,9.4-27.8v-96.8H133z"/>
	<path class="st1" d="M337.3,567.5c-16.5-13.8-37-20.8-60.7-20.8c-24.8,0-46.1,6.9-63.2,20.6c-17.2,13.8-26,31-26,51.2
		c0,19.5,8.7,36.3,25.9,49.9c17,13.5,37.8,20.3,61.6,20.3c24,0,44.8-6.9,61.8-20.6c17.1-13.8,25.7-30.7,25.7-50.2
		C362.4,598.4,354,581.4,337.3,567.5z M346.2,618.5c0,15.4-7,28.8-20.9,39.7c-14,11-31,16.6-50.7,16.6c-20,0-37-5.6-50.8-16.7
		c-13.6-11-20.5-24.6-20.5-40.5c0-15.5,6.8-29,20.2-40.2c13.5-11.3,30.1-17,49.4-17c21,0,38.6,5.6,52.6,16.5
		C339.2,587.9,346.2,601.8,346.2,618.5z"/>
	<path class="st1" d="M441.3,602.9c-7.4-8.1-17.3-14-29.3-17.3c4.3-4.3,6.4-9,6.4-13.9c0-7.2-3-13-9-17.2c-5.7-4.1-13-6.1-21.5-6.1
		h-13v138.5h14.2c17.7,0,33-5.1,45.5-15.2c12.6-10.2,19-22.7,19-37.3C453.7,622.5,449.5,611.9,441.3,602.9z M391.2,581.7v-20.3
		c3,0.3,5.5,1.2,7.6,2.9c2.4,1.9,3.5,4.3,3.5,7.4c0,3.1-1.1,5.5-3.5,7.3C396.7,580.5,394.2,581.4,391.2,581.7z M391.2,595.4
		c13.1,0.3,24.2,4,32.8,10.9c9.1,7.2,13.5,16.4,13.5,28.1c0,10.9-4.5,19.8-13.9,27.2c-8.9,7.1-19.8,10.8-32.5,11.2V595.4z"/>
	<path class="st1" d="M500,627.7c-6.3-9.5-12.7-18.9-18.9-27.9c-6.4-9.8-9.7-18.1-9.7-24.5c0-6.1,3.2-9.9,9.8-11.8
		c3.7-1,10.7-1.5,21-1.5h2v-13.6h-11c-11,0-20.1,2.3-27.1,6.8c-7.2,4.7-10.9,11.6-10.9,20.6c0,7.3,3.5,16.3,10.6,27.5
		c6.2,9,12.5,18.4,18.9,28c6.2,9.3,9.3,17.3,9.3,23.7c0,7.5-3.4,12.5-10.5,15.1c-5.1,1.9-13.1,2.9-23.8,2.9h-9.2v13.8h15.2
		c12.7,0,23.3-2.7,31.5-8.1c8.5-5.5,12.8-13.6,12.8-23.9C510,646.8,506.6,637.7,500,627.7z"/>
</g>
</svg>
